<svg width="25" height="25" viewBox="0 0 25 25" fill="none" xmlns="http://www.w3.org/2000/svg">
<path d="M5.66675 22.3C5.66675 19.9834 6.15008 18.1042 7.11675 16.6625C8.08341 15.2209 9.41675 13.7667 11.1167 12.3C9.41675 10.8334 8.08341 9.37922 7.11675 7.93755C6.15008 6.49588 5.66675 4.61672 5.66675 2.30005V2.05005C5.66675 1.76672 5.76258 1.52922 5.95425 1.33755C6.14591 1.14588 6.38341 1.05005 6.66675 1.05005C6.95008 1.05005 7.18758 1.14588 7.37925 1.33755C7.57091 1.52922 7.66675 1.76672 7.66675 2.05005V2.30005C7.66675 2.48338 7.67091 2.65422 7.67925 2.81255C7.68758 2.97088 7.70008 3.13338 7.71675 3.30005H17.6167C17.6334 3.13338 17.6459 2.97088 17.6542 2.81255C17.6626 2.65422 17.6667 2.48338 17.6667 2.30005V2.05005C17.6667 1.76672 17.7626 1.52922 17.9542 1.33755C18.1459 1.14588 18.3834 1.05005 18.6667 1.05005C18.9501 1.05005 19.1876 1.14588 19.3792 1.33755C19.5709 1.52922 19.6667 1.76672 19.6667 2.05005V2.30005C19.6667 4.61672 19.1834 6.49588 18.2167 7.93755C17.2501 9.37922 15.9167 10.8334 14.2167 12.3C15.9167 13.7667 17.2501 15.2209 18.2167 16.6625C19.1834 18.1042 19.6667 19.9834 19.6667 22.3V22.55C19.6667 22.8334 19.5709 23.0709 19.3792 23.2625C19.1876 23.4542 18.9501 23.55 18.6667 23.55C18.3834 23.55 18.1459 23.4542 17.9542 23.2625C17.7626 23.0709 17.6667 22.8334 17.6667 22.55V22.3C17.6667 22.1167 17.6626 21.9459 17.6542 21.7875C17.6459 21.6292 17.6334 21.4667 17.6167 21.3H7.71675C7.70008 21.4667 7.68758 21.6292 7.67925 21.7875C7.67091 21.9459 7.66675 22.1167 7.66675 22.3V22.55C7.66675 22.8334 7.57091 23.0709 7.37925 23.2625C7.18758 23.4542 6.95008 23.55 6.66675 23.55C6.38341 23.55 6.14591 23.4542 5.95425 23.2625C5.76258 23.0709 5.66675 22.8334 5.66675 22.55V22.3ZM9.11675 7.30005H16.2167C16.4334 6.98338 16.6209 6.66672 16.7792 6.35005C16.9376 6.03338 17.0834 5.68338 17.2167 5.30005H8.11675C8.25008 5.66672 8.39591 6.01255 8.55425 6.33755C8.71258 6.66255 8.90008 6.98338 9.11675 7.30005ZM12.6667 11C13.0001 10.7167 13.3251 10.4334 13.6417 10.15C13.9584 9.86672 14.2584 9.58338 14.5417 9.30005H10.7917C11.0751 9.58338 11.3751 9.86672 11.6917 10.15C12.0084 10.4334 12.3334 10.7167 12.6667 11ZM10.7917 15.3H14.5417C14.2584 15.0167 13.9584 14.7334 13.6417 14.45C13.3251 14.1667 13.0001 13.8834 12.6667 13.6C12.3334 13.8834 12.0084 14.1667 11.6917 14.45C11.3751 14.7334 11.0751 15.0167 10.7917 15.3ZM8.11675 19.3H17.2167C17.0834 18.9334 16.9376 18.5875 16.7792 18.2625C16.6209 17.9375 16.4334 17.6167 16.2167 17.3H9.11675C8.90008 17.6167 8.71258 17.9334 8.55425 18.25C8.39591 18.5667 8.25008 18.9167 8.11675 19.3Z" fill="#005045"/>
</svg>
