<svg width="25" height="25" viewBox="0 0 25 25" fill="none" xmlns="http://www.w3.org/2000/svg">
<path d="M19.6667 8.19995C19.9501 8.19995 20.1876 8.10412 20.3792 7.91245C20.5709 7.72078 20.6667 7.48328 20.6667 7.19995C20.6667 6.91662 20.5709 6.67912 20.3792 6.48745C20.1876 6.29578 19.9501 6.19995 19.6667 6.19995C19.3834 6.19995 19.1459 6.29578 18.9542 6.48745C18.7626 6.67912 18.6667 6.91662 18.6667 7.19995C18.6667 7.48328 18.7626 7.72078 18.9542 7.91245C19.1459 8.10412 19.3834 8.19995 19.6667 8.19995ZM19.6667 10.2C18.8167 10.2 18.1042 9.91245 17.5292 9.33745C16.9542 8.76245 16.6667 8.04995 16.6667 7.19995C16.6667 6.36662 16.9542 5.65828 17.5292 5.07495C18.1042 4.49162 18.8167 4.19995 19.6667 4.19995C20.5001 4.19995 21.2084 4.49162 21.7917 5.07495C22.3751 5.65828 22.6667 6.36662 22.6667 7.19995C22.6667 8.04995 22.3751 8.76245 21.7917 9.33745C21.2084 9.91245 20.5001 10.2 19.6667 10.2ZM12.6667 7.19995C13.0834 7.19995 13.4376 7.05828 13.7292 6.77495C14.0209 6.49162 14.1667 6.13328 14.1667 5.69995C14.1667 5.28328 14.0209 4.92912 13.7292 4.63745C13.4376 4.34578 13.0834 4.19995 12.6667 4.19995C12.2334 4.19995 11.8751 4.34578 11.5917 4.63745C11.3084 4.92912 11.1667 5.28328 11.1667 5.69995C11.1667 6.13328 11.3084 6.49162 11.5917 6.77495C11.8751 7.05828 12.2334 7.19995 12.6667 7.19995ZM12.6667 9.19995C11.6834 9.19995 10.8542 8.86245 10.1792 8.18745C9.50425 7.51245 9.16675 6.68328 9.16675 5.69995C9.16675 4.73328 9.50425 3.90828 10.1792 3.22495C10.8542 2.54162 11.6834 2.19995 12.6667 2.19995C13.6334 2.19995 14.4584 2.54162 15.1417 3.22495C15.8251 3.90828 16.1667 4.73328 16.1667 5.69995C16.1667 6.68328 15.8251 7.51245 15.1417 8.18745C14.4584 8.86245 13.6334 9.19995 12.6667 9.19995ZM8.66675 13.575C8.66675 14.075 8.93341 14.6583 9.46675 15.325C10.0001 15.9916 11.0667 17.05 12.6667 18.5C14.2334 17.0833 15.2917 16.0416 15.8417 15.375C16.3917 14.7083 16.6667 14.1083 16.6667 13.575C16.6667 13.1916 16.5417 12.8666 16.2917 12.6C16.0417 12.3333 15.7334 12.2 15.3667 12.2C15.1334 12.2 14.9126 12.25 14.7042 12.35C14.4959 12.45 14.3251 12.5916 14.1917 12.775L12.9917 14.2H12.3167L11.1167 12.775C10.9834 12.5916 10.8126 12.45 10.6042 12.35C10.3959 12.25 10.1834 12.2 9.96675 12.2C9.58342 12.2 9.27092 12.3333 9.02925 12.6C8.78758 12.8666 8.66675 13.1916 8.66675 13.575ZM6.66675 13.575C6.66675 12.6916 6.96675 11.9083 7.56675 11.225C8.16675 10.5416 8.96675 10.2 9.96675 10.2C10.4834 10.2 10.9792 10.3166 11.4542 10.55C11.9292 10.7833 12.3334 11.1 12.6667 11.5C13.0001 11.1 13.4001 10.7833 13.8667 10.55C14.3334 10.3166 14.8334 10.2 15.3667 10.2C16.3667 10.2 17.1667 10.5458 17.7667 11.2375C18.3667 11.9291 18.6667 12.7083 18.6667 13.575C18.6667 14.4583 18.3459 15.3291 17.7042 16.1875C17.0626 17.0458 15.7501 18.3833 13.7667 20.2L12.6667 21.2L11.5667 20.2C9.55008 18.3666 8.22925 17.025 7.60425 16.175C6.97925 15.325 6.66675 14.4583 6.66675 13.575ZM5.66675 8.19995C5.95008 8.19995 6.18758 8.10412 6.37925 7.91245C6.57091 7.72078 6.66675 7.48328 6.66675 7.19995C6.66675 6.91662 6.57091 6.67912 6.37925 6.48745C6.18758 6.29578 5.95008 6.19995 5.66675 6.19995C5.38341 6.19995 5.14591 6.29578 4.95425 6.48745C4.76258 6.67912 4.66675 6.91662 4.66675 7.19995C4.66675 7.48328 4.76258 7.72078 4.95425 7.91245C5.14591 8.10412 5.38341 8.19995 5.66675 8.19995ZM12.7417 22.2V20.2H20.6667V13.2H17.7167V11.2H20.6667C21.2167 11.2 21.6876 11.3958 22.0792 11.7875C22.4709 12.1791 22.6667 12.65 22.6667 13.2V21.2C22.6667 21.4833 22.5709 21.7208 22.3792 21.9125C22.1876 22.1041 21.9501 22.2 21.6667 22.2H12.7417ZM4.66675 20.2H12.7417V22.2H3.66675C3.38341 22.2 3.14591 22.1041 2.95425 21.9125C2.76258 21.7208 2.66675 21.4833 2.66675 21.2V13.2C2.66675 12.65 2.85841 12.1791 3.24175 11.7875C3.62508 11.3958 4.10008 11.2 4.66675 11.2H7.61675V13.2H4.66675V20.2ZM5.66675 10.2C4.81675 10.2 4.10425 9.91245 3.52925 9.33745C2.95425 8.76245 2.66675 8.04995 2.66675 7.19995C2.66675 6.36662 2.95425 5.65828 3.52925 5.07495C4.10425 4.49162 4.81675 4.19995 5.66675 4.19995C6.50008 4.19995 7.20841 4.49162 7.79175 5.07495C8.37508 5.65828 8.66675 6.36662 8.66675 7.19995C8.66675 8.04995 8.37508 8.76245 7.79175 9.33745C7.20841 9.91245 6.50008 10.2 5.66675 10.2Z" fill="#005045"/>
</svg>
