<svg width="155" height="49" viewBox="0 0 155 49" fill="none" xmlns="http://www.w3.org/2000/svg">
<path d="M8.42259 48.2492C6.96485 48.2492 5.83684 47.6592 5.03855 46.4791C4.24026 45.299 3.84112 43.7198 3.84112 41.7415V34.0883C3.84112 33.0471 3.78906 32.0232 3.68493 31.0167C3.58081 30.0101 3.38991 29.1251 3.11225 28.3615C2.83458 27.5632 2.4528 26.9385 1.96688 26.4872C1.48097 26.0013 0.856223 25.7584 0.0926442 25.7584V22.9991C0.856223 22.9991 1.48097 22.7735 1.96688 22.3223C2.4528 21.8364 2.83458 21.2116 3.11225 20.448C3.38991 19.6498 3.58081 18.7473 3.68493 17.7408C3.78906 16.7343 3.84112 15.7104 3.84112 14.6691V6.91187C3.84112 4.93351 4.24026 3.35429 5.03855 2.17421C5.83684 0.99414 6.96485 0.404102 8.42259 0.404102H11.0257V3.1634H9.98446C9.46383 3.1634 9.01263 3.31958 8.63084 3.63196C8.28376 3.90962 7.98874 4.30876 7.74578 4.82939C7.53753 5.3153 7.38135 5.88798 7.27722 6.54744C7.1731 7.17218 7.12104 7.83164 7.12104 8.5258V15.8666C7.12104 17.2896 6.96485 18.5217 6.65248 19.563C6.3401 20.5695 5.97567 21.4199 5.55917 22.114C5.14267 22.7735 4.72618 23.2767 4.30968 23.6238C3.92789 23.9709 3.65023 24.1965 3.47668 24.3006V24.4048C3.65023 24.5089 3.92789 24.7345 4.30968 25.0816C4.72618 25.4287 5.14267 25.9493 5.55917 26.6434C5.97567 27.3029 6.3401 28.1532 6.65248 29.1945C6.96485 30.201 7.12104 31.4158 7.12104 32.8388V40.1275C7.12104 40.8217 7.1731 41.4985 7.27722 42.158C7.38135 42.8174 7.53753 43.3901 7.74578 43.876C7.98874 44.3619 8.28376 44.7437 8.63084 45.0214C9.01263 45.3338 9.46383 45.4899 9.98446 45.4899H11.0257V48.2492H8.42259ZM52.0844 0.404102C53.5422 0.404102 54.6702 0.99414 55.4685 2.17421C56.2668 3.35429 56.6659 4.93351 56.6659 6.91187V14.6171C56.6659 15.6583 56.718 16.6822 56.8221 17.6887C56.9262 18.6953 57.1171 19.5977 57.3948 20.396C57.6724 21.1596 58.0542 21.7843 58.5401 22.2702C59.0261 22.7214 59.6508 22.947 60.4144 22.947V25.7063C59.6508 25.7063 59.0261 25.9493 58.5401 26.4352C58.0542 26.8864 57.6724 27.5111 57.3948 28.3094C57.1171 29.073 56.9262 29.9581 56.8221 30.9646C56.718 31.9711 56.6659 32.995 56.6659 34.0363V41.7415C56.6659 43.7198 56.2668 45.299 55.4685 46.4791C54.6702 47.6592 53.5422 48.2492 52.0844 48.2492H49.4813V45.4899H50.5226C51.0432 45.4899 51.477 45.3338 51.8241 45.0214C52.2059 44.7437 52.5009 44.3619 52.7092 43.876C52.9521 43.3901 53.1257 42.8174 53.2298 42.158C53.3339 41.4985 53.386 40.8217 53.386 40.1275V32.8388C53.386 31.4158 53.5422 30.201 53.8546 29.1945C54.1669 28.1532 54.5314 27.3029 54.9479 26.6434C55.3644 25.9493 55.7635 25.4287 56.1453 25.0816C56.5618 24.7345 56.8568 24.5089 57.0303 24.4048V24.3006C56.8568 24.1965 56.5618 23.9709 56.1453 23.6238C55.7635 23.2767 55.3644 22.7735 54.9479 22.114C54.5314 21.4199 54.1669 20.5695 53.8546 19.563C53.5422 18.5217 53.386 17.2896 53.386 15.8666V8.5258C53.386 7.83164 53.3339 7.17218 53.2298 6.54744C53.1257 5.88798 52.9521 5.3153 52.7092 4.82939C52.5009 4.30876 52.2059 3.90962 51.8241 3.63196C51.477 3.31958 51.0432 3.1634 50.5226 3.1634H49.4813V0.404102H52.0844Z" fill="#F2F7F7"/>
<path d="M76.4092 17.1089V3.1433H79.7023C80.8402 3.1433 81.7253 3.29848 82.3575 3.60882C83.0011 3.91917 83.4552 4.39618 83.7195 5.03986C83.9954 5.68355 84.1333 6.49964 84.1333 7.48815V12.5916C84.1333 13.6031 83.9954 14.448 83.7195 15.1261C83.4552 15.7928 83.0069 16.2928 82.3747 16.6261C81.754 16.948 80.8977 17.1089 79.8057 17.1089H76.4092ZM78.9609 15.333H79.7368C80.323 15.333 80.7425 15.2296 80.9954 15.0227C81.2483 14.8158 81.4034 14.5169 81.4609 14.1261C81.5184 13.7238 81.5471 13.2353 81.5471 12.6606V7.31574C81.5471 6.75252 81.5069 6.29849 81.4264 5.95366C81.346 5.60883 81.1793 5.35596 80.9264 5.19504C80.6735 5.03412 80.2655 4.95366 79.7023 4.95366H78.9609V15.333ZM86.0754 17.1089V3.1433H88.5927V17.1089H86.0754ZM94.2546 17.2985C93.3351 17.2985 92.6052 17.1031 92.0649 16.7123C91.5247 16.3215 91.1339 15.7698 90.8925 15.0572C90.6626 14.333 90.5477 13.4824 90.5477 12.5054V7.81574C90.5477 6.81574 90.6626 5.95366 90.8925 5.22952C91.1224 4.50538 91.5247 3.95365 92.0994 3.57434C92.6856 3.18353 93.4902 2.98813 94.5132 2.98813C95.4672 2.98813 96.2259 3.14905 96.7891 3.47089C97.3523 3.79273 97.7546 4.25825 97.996 4.86745C98.2489 5.46515 98.3753 6.19504 98.3753 7.05712V7.78126H95.9443V6.98815C95.9443 6.53987 95.9098 6.15481 95.8408 5.83297C95.7833 5.51113 95.6569 5.26975 95.4615 5.10883C95.2776 4.93642 94.973 4.85021 94.5477 4.85021C94.0994 4.85021 93.7718 4.9594 93.5649 5.1778C93.3695 5.39619 93.2431 5.68355 93.1856 6.03987C93.1397 6.39619 93.1167 6.787 93.1167 7.21229V13.0571C93.1167 13.5399 93.1569 13.9594 93.2374 14.3158C93.3178 14.6721 93.4672 14.948 93.6856 15.1434C93.904 15.3273 94.2144 15.4192 94.6167 15.4192C95.0305 15.4192 95.3466 15.3158 95.565 15.1089C95.7833 14.902 95.9328 14.6146 96.0132 14.2468C96.1052 13.879 96.1512 13.4422 96.1512 12.9365V11.6261H94.6512V10.0226H98.4443V17.1089H96.8063L96.6167 15.7296C96.4328 16.1893 96.1512 16.5687 95.7718 16.8675C95.404 17.1549 94.8983 17.2985 94.2546 17.2985ZM100.455 17.1089V3.1433H102.972V17.1089H100.455ZM106.53 17.1089V5.02262H104.306V3.1433H111.272V5.02262H109.082V17.1089H106.53ZM111.498 17.1089L114.292 3.1433H117.016L119.809 17.1089H117.447L116.895 13.8847H114.464L113.895 17.1089H111.498ZM114.723 12.264H116.619L115.671 6.40194L114.723 12.264ZM121.213 17.1089V3.1433H123.765V15.3503H127.144V17.1089H121.213ZM131.956 17.1089L134.749 3.1433H137.473L140.266 17.1089H137.904L137.352 13.8847H134.921L134.352 17.1089H131.956ZM135.18 12.264H137.077L136.128 6.40194L135.18 12.264ZM141.74 17.1089V3.1433H144.257V17.1089H141.74ZM146.419 17.1089V3.1433H149.712C150.85 3.1433 151.735 3.29848 152.367 3.60882C153.011 3.91917 153.465 4.39618 153.729 5.03986C154.005 5.68355 154.143 6.49964 154.143 7.48815V12.5916C154.143 13.6031 154.005 14.448 153.729 15.1261C153.465 15.7928 153.017 16.2928 152.384 16.6261C151.764 16.948 150.907 17.1089 149.815 17.1089H146.419ZM148.971 15.333H149.747C150.333 15.333 150.752 15.2296 151.005 15.0227C151.258 14.8158 151.413 14.5169 151.471 14.1261C151.528 13.7238 151.557 13.2353 151.557 12.6606V7.31574C151.557 6.75252 151.517 6.29849 151.436 5.95366C151.356 5.60883 151.189 5.35596 150.936 5.19504C150.683 5.03412 150.275 4.95366 149.712 4.95366H148.971V15.333ZM82.1071 45.3891C80.8675 45.3891 79.8317 45.1513 78.9997 44.6759C78.1676 44.1835 77.5394 43.4703 77.1149 42.5364C76.6904 41.6025 76.4526 40.4563 76.4017 39.0979L79.6364 38.4611C79.6704 39.2592 79.7638 39.9639 79.9166 40.5752C80.0864 41.1865 80.3326 41.6619 80.6553 42.0015C80.9949 42.3241 81.4363 42.4854 81.9797 42.4854C82.591 42.4854 83.024 42.3071 83.2787 41.9506C83.5334 41.577 83.6608 41.11 83.6608 40.5497C83.6608 39.6497 83.457 38.9111 83.0495 38.3338C82.6419 37.7564 82.0986 37.1791 81.4194 36.6018L78.8214 34.3095C78.0912 33.6812 77.5054 32.985 77.0639 32.2209C76.6394 31.4398 76.4272 30.4804 76.4272 29.3427C76.4272 27.7126 76.9026 26.4561 77.8535 25.5731C78.8044 24.6902 80.1034 24.2487 81.7505 24.2487C82.7184 24.2487 83.5249 24.4015 84.1702 24.7071C84.8154 24.9958 85.3248 25.4033 85.6984 25.9297C86.0889 26.4561 86.3776 27.0589 86.5644 27.7381C86.7512 28.4003 86.87 29.105 86.921 29.8522L83.7117 30.4125C83.6777 29.7673 83.6013 29.1899 83.4825 28.6805C83.3806 28.1711 83.1853 27.7721 82.8966 27.4834C82.625 27.1947 82.2174 27.0504 81.6741 27.0504C81.1137 27.0504 80.6807 27.2372 80.3751 27.6108C80.0864 27.9673 79.9421 28.4173 79.9421 28.9607C79.9421 29.6569 80.0864 30.2342 80.3751 30.6927C80.6637 31.1342 81.0798 31.5926 81.6231 32.0681L84.1956 34.3349C85.0446 35.0481 85.7663 35.8886 86.3606 36.8565C86.9719 37.8074 87.2775 38.962 87.2775 40.3205C87.2775 41.3053 87.0568 42.1798 86.6153 42.9439C86.1908 43.708 85.588 44.3108 84.8069 44.7523C84.0428 45.1768 83.1429 45.3891 82.1071 45.3891ZM89.497 45.1089V24.4779H98.157V27.1268H93.2667V33.0614H97.1127V35.6849H93.2667V42.5109H98.2079V45.1089H89.497ZM99.3473 45.1089L103.473 24.4779H107.498L111.624 45.1089H108.135L107.32 40.3459H103.728L102.888 45.1089H99.3473ZM104.11 37.9517H106.912L105.511 29.2918L104.11 37.9517ZM114.792 45.1089V27.2542H111.506V24.4779H121.796V27.2542H118.561V45.1089H114.792ZM125.736 45.1089V27.2542H122.45V24.4779H132.741V27.2542H129.506V45.1089H125.736ZM134.617 45.1089V24.4779H138.387V42.5109H143.379V45.1089H134.617ZM145.338 45.1089V24.4779H153.998V27.1268H149.107V33.0614H152.953V35.6849H149.107V42.5109H154.049V45.1089H145.338Z" fill="#F2F7F7"/>
<path d="M30.0499 0.497559L23.1137 42.2797H32.8245L35.1211 30.2704L30.0499 0.497559Z" fill="#A6D569"/>
<path d="M22.3443 42.28H15.4199L21.2761 10.2554L24.0469 30.2707L22.3443 42.28Z" fill="#A6D569"/>
<path d="M45.2636 42.2792H33.6055L39.4347 15.0083L45.2636 42.2792Z" fill="#A6D569"/>
</svg>
