<svg width="600" height="596" viewBox="0 0 600 596" fill="none" xmlns="http://www.w3.org/2000/svg">
<g clip-path="url(#clip0_1114_37975)">
<path d="M754.015 206.873L740.829 220.059L754.015 233.244L767.201 220.059L754.015 206.873ZM754.015 368.116H751.731V370.4H754.015V368.116ZM1013.69 368.116H1015.98V365.833H1013.69V368.116ZM1013.69 534.336H1011.41V536.62H1013.69V534.336ZM1130.79 534.336V536.62H1133.08V534.336H1130.79ZM1130.79 295.928H1133.08V293.644H1130.79V295.928ZM991.478 295.928H989.194V298.212H991.478V295.928ZM628.982 248.095H610.334V266.743H628.982V248.095ZM439.011 438.066L437.396 436.451L435.879 437.968L437.299 439.577L439.011 438.066ZM474.186 477.913H476.47V477.049L475.898 476.401L474.186 477.913ZM474.186 584.581V586.865H476.47V584.581H474.186ZM314.316 584.581H312.032V586.865H314.316V584.581ZM314.316 417.4H316.6V415.117H314.316V417.4ZM226.124 417.4V415.117H225.048L224.363 415.945L226.124 417.4ZM146.556 513.671V515.955H147.632L148.317 515.126L146.556 513.671ZM-366.271 513.671H-368.555V515.955H-366.271V513.671ZM-366.271 438.066V435.782H-368.555V438.066H-366.271ZM104.699 438.066L91.5133 424.88L78.3275 438.066L91.5133 451.251L104.699 438.066ZM991.478 -97.7732L978.292 -84.5874L991.478 -71.4016L1004.66 -84.5874L991.478 -97.7732ZM751.731 220.059V368.116H756.299V220.059H751.731ZM754.015 370.4L1013.69 370.4V365.833L754.015 365.833V370.4ZM1011.41 368.116V534.336H1015.98V368.116H1011.41ZM1013.69 536.62H1130.79V532.052H1013.69V536.62ZM1133.08 534.336V295.928H1128.51V534.336H1133.08ZM1130.79 293.644H991.478V298.212H1130.79V293.644ZM618.043 255.804L437.396 436.451L440.626 439.681L621.273 259.034L618.043 255.804ZM437.299 439.577L472.474 479.424L475.898 476.401L440.724 436.554L437.299 439.577ZM471.902 477.913V584.581H476.47V477.913H471.902ZM474.186 582.297H314.316V586.865H474.186V582.297ZM316.6 584.581V417.4H312.032V584.581H316.6ZM314.316 415.117H226.124V419.684H314.316V415.117ZM224.363 415.945L144.796 512.216L148.317 515.126L227.884 418.855L224.363 415.945ZM146.556 511.387L-366.271 511.387V515.955L146.556 515.955V511.387ZM-363.987 513.671L-363.987 438.066H-368.555L-368.555 513.671H-363.987ZM-366.271 440.35L91.5133 440.35V435.782L-366.271 435.782V440.35ZM989.194 -84.5874V295.928H993.762V-84.5874H989.194Z" fill="#F8F8F8" fill-opacity="0.4" style="mix-blend-mode:overlay"/>
</g>
<defs>
<clipPath id="clip0_1114_37975">
<rect width="1461.66" height="700" fill="white" transform="translate(-348 -104)"/>
</clipPath>
</defs>
</svg>
<svg width="600" height="596" viewBox="0 0 600 596" fill="none" xmlns="http://www.w3.org/2000/svg">
<g clip-path="url(#clip0_1114_37975)">
<path d="M754.015 206.873L740.829 220.059L754.015 233.244L767.201 220.059L754.015 206.873ZM754.015 368.116H751.731V370.4H754.015V368.116ZM1013.69 368.116H1015.98V365.833H1013.69V368.116ZM1013.69 534.336H1011.41V536.62H1013.69V534.336ZM1130.79 534.336V536.62H1133.08V534.336H1130.79ZM1130.79 295.928H1133.08V293.644H1130.79V295.928ZM991.478 295.928H989.194V298.212H991.478V295.928ZM628.982 248.095H610.334V266.743H628.982V248.095ZM439.011 438.066L437.396 436.451L435.879 437.968L437.299 439.577L439.011 438.066ZM474.186 477.913H476.47V477.049L475.898 476.401L474.186 477.913ZM474.186 584.581V586.865H476.47V584.581H474.186ZM314.316 584.581H312.032V586.865H314.316V584.581ZM314.316 417.4H316.6V415.117H314.316V417.4ZM226.124 417.4V415.117H225.048L224.363 415.945L226.124 417.4ZM146.556 513.671V515.955H147.632L148.317 515.126L146.556 513.671ZM-366.271 513.671H-368.555V515.955H-366.271V513.671ZM-366.271 438.066V435.782H-368.555V438.066H-366.271ZM104.699 438.066L91.5133 424.88L78.3275 438.066L91.5133 451.251L104.699 438.066ZM991.478 -97.7732L978.292 -84.5874L991.478 -71.4016L1004.66 -84.5874L991.478 -97.7732ZM751.731 220.059V368.116H756.299V220.059H751.731ZM754.015 370.4L1013.69 370.4V365.833L754.015 365.833V370.4ZM1011.41 368.116V534.336H1015.98V368.116H1011.41ZM1013.69 536.62H1130.79V532.052H1013.69V536.62ZM1133.08 534.336V295.928H1128.51V534.336H1133.08ZM1130.79 293.644H991.478V298.212H1130.79V293.644ZM618.043 255.804L437.396 436.451L440.626 439.681L621.273 259.034L618.043 255.804ZM437.299 439.577L472.474 479.424L475.898 476.401L440.724 436.554L437.299 439.577ZM471.902 477.913V584.581H476.47V477.913H471.902ZM474.186 582.297H314.316V586.865H474.186V582.297ZM316.6 584.581V417.4H312.032V584.581H316.6ZM314.316 415.117H226.124V419.684H314.316V415.117ZM224.363 415.945L144.796 512.216L148.317 515.126L227.884 418.855L224.363 415.945ZM146.556 511.387L-366.271 511.387V515.955L146.556 515.955V511.387ZM-363.987 513.671L-363.987 438.066H-368.555L-368.555 513.671H-363.987ZM-366.271 440.35L91.5133 440.35V435.782L-366.271 435.782V440.35ZM989.194 -84.5874V295.928H993.762V-84.5874H989.194Z" fill="#F8F8F8" />
</g>
<defs>
<clipPath id="clip0_1114_37975">
<rect width="1461.66" height="700" fill="white" transform="translate(-348 -104)"/>
</clipPath>
</defs>
</svg>
