<svg width="320" height="621" viewBox="0 0 320 621" fill="none" xmlns="http://www.w3.org/2000/svg">
<path d="M262.764 306.05L251.217 294.503L239.67 306.05L251.217 317.597L262.764 306.05ZM121.561 306.05L121.561 304.05L119.561 304.05L119.561 306.05L121.561 306.05ZM121.561 533.455L121.561 535.455L123.561 535.455L123.561 533.455L121.561 533.455ZM-24.0001 533.455L-24.0001 531.455L-26.0001 531.455L-26.0001 533.455L-24.0001 533.455ZM-24.0001 636L-26.0001 636L-26.0001 638L-24.0001 638L-24.0001 636ZM184.777 636L184.777 638L186.777 638L186.777 636L184.777 636ZM184.777 514L184.777 512L182.777 512L182.777 514L184.777 514ZM226.665 196.557L226.665 180.227L210.335 180.227L210.335 196.557L226.665 196.557ZM60.3053 30.1972L61.7195 28.783L60.3907 27.4541L58.9818 28.6978L60.3053 30.1972ZM25.4107 61L25.4107 63L26.1671 63L26.7343 62.4994L25.4107 61ZM-68 61L-70 61L-70 63L-68 63L-68 61ZM-68 -79L-68 -81L-70 -81L-70 -79L-68 -79ZM78.4022 -79L78.4022 -77L80.4022 -77L80.4022 -79L78.4022 -79ZM78.4022 -156.232L80.4022 -156.232L80.4022 -157.173L79.6764 -157.773L78.4022 -156.232ZM-5.90303 -225.91L-7.90303 -225.91L-7.90303 -224.968L-7.1772 -224.368L-5.90303 -225.91ZM-5.90302 -675L-5.90302 -677L-7.90302 -677L-7.90302 -675L-5.90302 -675ZM60.3054 -675L62.3054 -675L62.3054 -677L60.3054 -677L60.3054 -675ZM60.3053 -262.565L71.8523 -274.112L60.3053 -285.659L48.7583 -274.112L60.3053 -262.565ZM529.547 514L518 502.453L506.453 514L518 525.547L529.547 514ZM251.217 304.05L121.561 304.05L121.561 308.05L251.217 308.05L251.217 304.05ZM119.561 306.05L119.561 533.455L123.561 533.455L123.561 306.05L119.561 306.05ZM121.561 531.455L-24.0001 531.455L-24.0001 535.455L121.561 535.455L121.561 531.455ZM-26.0001 533.455L-26.0001 636L-22.0001 636L-22.0001 533.455L-26.0001 533.455ZM-24.0001 638L184.777 638L184.777 634L-24.0001 634L-24.0001 638ZM186.777 636L186.777 514L182.777 514L182.777 636L186.777 636ZM219.914 186.978L61.7195 28.783L58.8911 31.6114L217.086 189.806L219.914 186.978ZM58.9818 28.6978L24.0871 59.5006L26.7343 62.4994L61.6289 31.6966L58.9818 28.6978ZM25.4107 59L-68 59L-68 63L25.4107 63L25.4107 59ZM-66 61L-66 -79L-70 -79L-70 61L-66 61ZM-68 -77L78.4022 -77L78.4022 -81L-68 -81L-68 -77ZM80.4022 -79L80.4022 -156.232L76.4022 -156.232L76.4022 -79L80.4022 -79ZM79.6764 -157.773L-4.62886 -227.451L-7.1772 -224.368L77.1281 -154.69L79.6764 -157.773ZM-3.90303 -225.91L-3.90302 -675L-7.90302 -675L-7.90303 -225.91L-3.90303 -225.91ZM-5.90302 -673L60.3054 -673L60.3054 -677L-5.90302 -677L-5.90302 -673ZM58.3054 -675L58.3053 -274.112L62.3053 -274.112L62.3054 -675L58.3054 -675ZM518 512L184.777 512L184.777 516L518 516L518 512Z" fill="#F8F8F8" fill-opacity="0.4" style="mix-blend-mode:overlay"/>
</svg>
