<svg width="2321" height="600" viewBox="0 0 2321 600" fill="none" xmlns="http://www.w3.org/2000/svg">
  <path d="M1447.05 267.236L1435.5 278.783L1447.05 290.33L1458.6 278.783L1447.05 267.236ZM1447.05 408.439H1445.05V410.439H1447.05V408.439ZM1674.46 408.439H1676.46V406.439H1674.46V408.439ZM1674.46 554H1672.46V556H1674.46V554ZM2319 554V556H2321V554H2319ZM2319 345.223H2321V343.223H2319V345.223ZM1655 345.223H1653V347.223H1655V345.223ZM1337.56 303.335L1321.23 303.335L1321.23 319.665L1337.56 319.665L1337.56 303.335ZM1171.2 469.695L1169.78 468.28L1168.45 469.609L1169.7 471.018L1171.2 469.695ZM1202 504.589H1204V503.833L1203.5 503.266L1202 504.589ZM1202 598V600H1204V598H1202ZM1062 598H1060V600H1062V598ZM1062 451.598H1064V449.598H1062V451.598ZM984.768 451.598V449.598H983.827L983.227 450.324L984.768 451.598ZM915.09 535.903V537.903H916.032L916.632 537.177L915.09 535.903ZM2 535.903H0V537.903H2V535.903ZM2 469.695V467.695H0V469.695H2ZM878.435 469.695L866.888 458.148L855.341 469.695L866.888 481.242L878.435 469.695ZM1655 0.452995L1643.45 12L1655 23.547L1666.55 12L1655 0.452995ZM1445.05 278.783V408.439H1449.05V278.783H1445.05ZM1447.05 410.439H1674.46V406.439H1447.05V410.439ZM1672.46 408.439V554H1676.46V408.439H1672.46ZM1674.46 556H2319V552H1674.46V556ZM2321 554V345.223H2317V554H2321ZM2319 343.223H1655V347.223H2319V343.223ZM1327.98 310.086L1169.78 468.28L1172.61 471.109L1330.81 312.914L1327.98 310.086ZM1169.7 471.018L1200.5 505.913L1203.5 503.266L1172.7 468.371L1169.7 471.018ZM1200 504.589V598H1204V504.589H1200ZM1202 596H1062V600H1202V596ZM1064 598V451.598H1060V598H1064ZM1062 449.598H984.768V453.598H1062V449.598ZM983.227 450.324L913.549 534.629L916.632 537.177L986.31 452.872L983.227 450.324ZM915.09 533.903H2V537.903H915.09V533.903ZM4 535.903V469.695H0V535.903H4ZM2 471.695H866.888V467.695H2V471.695ZM1653 12V345.223H1657V12H1653Z" fill="#F8F8F8" />
</svg>