<svg width="160" height="160"><path d="M24.274 107.592c-1.248-1.504-2.816-2.256-4.704-2.256-.544 0-1.072.096-1.584.288-.512.16-.976.432-1.392.816-.416.384-.752.88-1.008 1.488-.224.608-.336 1.328-.336 2.16 0 1.44.432 2.56 1.296 3.36.864.768 2 1.504 3.408 2.208.832.416 1.68.896 2.544 1.44.864.544 1.648 1.2 2.352 1.968s1.28 1.68 1.728 2.736c.448 1.056.672 2.304.672 3.744 0 1.664-.272 3.136-.816 4.416-.512 1.28-1.216 2.368-2.112 3.264a8.582 8.582 0 0 1-3.072 1.968 10.49 10.49 0 0 1-3.744.672c-1.888 0-3.632-.368-5.232-1.104-1.6-.736-2.88-1.664-3.84-2.784l3.12-4.224a8.031 8.031 0 0 0 2.64 2.112c1.056.512 2.128.768 3.216.768 1.216 0 2.224-.416 3.024-1.248.8-.832 1.2-2 1.2-3.504 0-1.472-.48-2.64-1.44-3.504-.96-.864-2.176-1.664-3.648-2.4a23.432 23.432 0 0 1-2.64-1.488c-.8-.544-1.52-1.184-2.16-1.92a10.086 10.086 0 0 1-1.488-2.64c-.352-1.024-.528-2.24-.528-3.648 0-1.76.272-3.264.816-4.512.576-1.28 1.312-2.336 2.208-3.168a8.804 8.804 0 0 1 3.12-1.824 10.248 10.248 0 0 1 3.504-.624c1.728 0 3.264.288 4.608.864 1.376.544 2.528 1.36 3.456 2.448l-3.168 4.128ZM32.973 135v-33.984h15.216v5.088h-9.696v9.024h8.976v4.704h-8.976v10.032h10.176V135H32.973Zm36.122 0-1.68-7.2h-8.928l-1.728 7.2h-5.76l8.448-33.984h7.344L75.095 135h-6Zm-6-28.56h-.192l-3.696 16.848h7.488l-3.6-16.848Zm23.677-.528V135h-5.664v-29.088h-6.384v-4.896h18.432v4.896h-6.384Zm18.715 0V135h-5.664v-29.088h-6.384v-4.896h18.432v4.896h-6.384ZM115.705 135v-33.984h5.808v28.656h9.36V135h-15.168Zm19.371 0v-33.984h15.216v5.088h-9.696v9.024h8.976v4.704h-8.976v10.032h10.176V135h-15.696ZM24.145 90.768c-2.88 0-5.36-.672-7.44-2.016-2.048-1.344-3.632-3.168-4.752-5.472-1.088-2.304-1.632-4.896-1.632-7.776V33.936c0-2.912.544-5.504 1.632-7.776 1.12-2.304 2.704-4.128 4.752-5.472 2.08-1.344 4.56-2.016 7.44-2.016 2.88 0 5.344.672 7.392 2.016 2.08 1.344 3.664 3.168 4.752 5.472 1.12 2.304 1.68 4.896 1.68 7.776v41.568c0 2.88-.56 5.472-1.68 7.776-1.088 2.304-2.672 4.128-4.752 5.472-2.048 1.344-4.512 2.016-7.392 2.016Zm0-10.08c1.28 0 2.176-.528 2.688-1.584.512-1.088.768-2.288.768-3.6V33.936c0-1.312-.272-2.496-.816-3.552-.544-1.088-1.424-1.632-2.64-1.632-1.184 0-2.064.544-2.64 1.632-.544 1.056-.816 2.24-.816 3.552v41.568c0 1.312.272 2.512.816 3.6.544 1.056 1.424 1.584 2.64 1.584ZM48.087 90V19.44h10.368c3.937 0 7.216.864 9.84 2.592 2.656 1.728 4.64 4.176 5.953 7.344 1.311 3.168 1.968 6.896 1.968 11.184 0 4.288-.688 7.984-2.064 11.088-1.377 3.104-3.392 5.536-6.049 7.296-2.623 1.728-5.84 2.672-9.647 2.832V90H48.087Zm10.368-38.784c1.825 0 3.264-.352 4.32-1.056 1.056-.736 1.809-1.888 2.256-3.456.48-1.568.72-3.584.72-6.048 0-2.496-.24-4.528-.72-6.096-.448-1.568-1.216-2.72-2.304-3.456-1.055-.736-2.48-1.104-4.271-1.104v21.216ZM84.719 90V19.44h23.712v10.656H95.085v19.008h9.601v10.368h-9.6v19.872h13.344V90H84.717Zm34.286 0V19.44h9.696l9.6 36.768.864 3.264h.576V19.44h9.504V90h-8.736l-10.56-36.768-.864-3.264h-.576V90h-9.504Z"/></svg>