<svg width="575" height="193" viewBox="0 0 575 193" fill="none" xmlns="http://www.w3.org/2000/svg">
<path d="M33.868 192.773H44.3347V181.679H40.148C38.0547 181.679 36.2404 181.051 34.7053 179.795C33.3098 178.678 32.1236 177.143 31.1467 175.189C30.3093 173.236 29.6813 170.933 29.2627 168.281C28.844 165.63 28.6347 162.908 28.6347 160.117V130.811C28.6347 125.089 28.0067 120.204 26.7507 116.157C25.4947 111.971 24.0293 108.552 22.3547 105.9C20.68 103.109 19.0053 101.016 17.3307 99.62C15.7956 98.2244 14.6791 97.3173 13.9813 96.8987V96.48C14.6791 96.0613 15.7956 95.1542 17.3307 93.7587C19.0053 92.3631 20.68 90.3396 22.3547 87.688C24.0293 84.8969 25.4947 81.4778 26.7507 77.4307C28.0067 73.244 28.6347 68.2898 28.6347 62.568V33.052C28.6347 30.2609 28.844 27.6093 29.2627 25.0974C29.6813 22.4458 30.3093 20.1431 31.1467 18.1893C32.1236 16.096 33.3098 14.4911 34.7053 13.3747C36.2404 12.1187 38.0547 11.4907 40.148 11.4907H44.3347V0.396019H33.868C28.0067 0.396019 23.4711 2.76846 20.2613 7.51335C17.0516 12.2582 15.4467 18.608 15.4467 26.5627V57.7533C15.4467 61.94 15.2373 66.0569 14.8187 70.104C14.4 74.1511 13.6324 77.7796 12.516 80.9893C11.3996 84.0596 9.86444 86.5716 7.91066 88.5253C5.95689 90.3396 3.44489 91.2467 0.374665 91.2467V102.341C3.44489 102.341 5.95689 103.318 7.91066 105.272C9.86444 107.086 11.3996 109.598 12.516 112.808C13.6324 115.878 14.4 119.437 14.8187 123.484C15.2373 127.531 15.4467 131.648 15.4467 135.835V166.607C15.4467 174.561 17.0516 180.911 20.2613 185.656C23.4711 190.401 28.0067 192.773 33.868 192.773ZM209.425 0.396019H198.958V11.4907H203.145C205.238 11.4907 206.983 12.1187 208.378 13.3747C209.913 14.4911 211.1 16.096 211.937 18.1893C212.914 20.1431 213.612 22.4458 214.03 25.0974C214.449 27.6093 214.658 30.2609 214.658 33.052V62.568C214.658 68.2898 215.286 73.244 216.542 77.4307C217.798 81.4778 219.264 84.8969 220.938 87.688C222.613 90.3396 224.218 92.3631 225.753 93.7587C227.428 95.1542 228.614 96.0613 229.312 96.48V96.8987C228.614 97.3173 227.428 98.2244 225.753 99.62C224.218 101.016 222.613 103.109 220.938 105.9C219.264 108.552 217.798 111.971 216.542 116.157C215.286 120.204 214.658 125.089 214.658 130.811V160.117C214.658 162.908 214.449 165.63 214.03 168.281C213.612 170.933 212.914 173.236 211.937 175.189C211.1 177.143 209.913 178.678 208.378 179.795C206.983 181.051 205.238 181.679 203.145 181.679H198.958V192.773H209.425C215.286 192.773 219.822 190.401 223.032 185.656C226.241 180.911 227.846 174.561 227.846 166.607V135.625C227.846 131.439 228.056 127.322 228.474 123.275C228.893 119.228 229.661 115.669 230.777 112.599C231.893 109.389 233.429 106.877 235.382 105.063C237.336 103.109 239.848 102.132 242.918 102.132V91.0373C239.848 91.0373 237.336 90.1302 235.382 88.316C233.429 86.3622 231.893 83.8502 230.777 80.78C229.661 77.5702 228.893 73.9418 228.474 69.8947C228.056 65.8476 227.846 61.7307 227.846 57.544V26.5627C227.846 18.608 226.241 12.2582 223.032 7.51335C219.822 2.76846 215.286 0.396019 209.425 0.396019Z" fill="#F2F7F7"/>
<path d="M327.728 84.968C322.683 84.968 318.664 84.0293 315.672 82.152C312.68 80.2747 310.539 77.576 309.248 74.056C307.957 70.536 307.312 66.3707 307.312 61.56V34.896C307.312 30.0853 307.957 25.9787 309.248 22.576C310.539 19.1147 312.68 16.4747 315.672 14.656C318.664 12.8373 322.683 11.928 327.728 11.928C332.891 11.928 336.939 12.8373 339.872 14.656C342.864 16.4747 345.005 19.1147 346.296 22.576C347.645 25.9787 348.32 30.0853 348.32 34.896V61.648C348.32 66.4 347.645 70.536 346.296 74.056C345.005 77.5173 342.864 80.216 339.872 82.152C336.939 84.0293 332.891 84.968 327.728 84.968ZM327.728 75.376C329.899 75.376 331.483 74.9067 332.48 73.968C333.536 73.0293 334.24 71.7387 334.592 70.096C334.944 68.4533 335.12 66.664 335.12 64.728V31.904C335.12 29.9093 334.944 28.12 334.592 26.536C334.24 24.952 333.536 23.72 332.48 22.84C331.483 21.9013 329.899 21.432 327.728 21.432C325.675 21.432 324.12 21.9013 323.064 22.84C322.008 23.72 321.304 24.952 320.952 26.536C320.6 28.12 320.424 29.9093 320.424 31.904V64.728C320.424 66.664 320.571 68.4533 320.864 70.096C321.216 71.7387 321.92 73.0293 322.976 73.968C324.032 74.9067 325.616 75.376 327.728 75.376ZM357.954 84V12.72H378.898C383.181 12.72 386.642 13.512 389.282 15.096C391.981 16.68 393.946 18.9973 395.178 22.048C396.469 25.04 397.114 28.6773 397.114 32.96C397.114 37.5947 396.322 41.3493 394.738 44.224C393.154 47.04 390.925 49.0933 388.05 50.384C385.234 51.6747 381.89 52.32 378.018 52.32H370.978V84H357.954ZM370.978 43.168H375.906C378.253 43.168 380.071 42.8453 381.362 42.2C382.711 41.496 383.621 40.4107 384.09 38.944C384.618 37.4187 384.882 35.3947 384.882 32.872C384.882 30.2907 384.677 28.208 384.266 26.624C383.914 24.9813 383.093 23.7787 381.802 23.016C380.57 22.2533 378.605 21.872 375.906 21.872H370.978V43.168ZM404.36 84V12.72H434.28V21.872H417.384V42.376H430.672V51.44H417.384V75.024H434.456V84H404.36ZM442.001 84V12.72H451.065L468.401 53.376V12.72H479.137V84H470.513L453.089 41.408V84H442.001ZM326.32 179.968C322.037 179.968 318.459 179.147 315.584 177.504C312.709 175.803 310.539 173.339 309.072 170.112C307.605 166.885 306.784 162.925 306.608 158.232L317.784 156.032C317.901 158.789 318.224 161.224 318.752 163.336C319.339 165.448 320.189 167.091 321.304 168.264C322.477 169.379 324.003 169.936 325.88 169.936C327.992 169.936 329.488 169.32 330.368 168.088C331.248 166.797 331.688 165.184 331.688 163.248C331.688 160.139 330.984 157.587 329.576 155.592C328.168 153.597 326.291 151.603 323.944 149.608L314.968 141.688C312.445 139.517 310.421 137.112 308.896 134.472C307.429 131.773 306.696 128.459 306.696 124.528C306.696 118.896 308.339 114.555 311.624 111.504C314.909 108.453 319.397 106.928 325.088 106.928C328.432 106.928 331.219 107.456 333.448 108.512C335.677 109.509 337.437 110.917 338.728 112.736C340.077 114.555 341.075 116.637 341.72 118.984C342.365 121.272 342.776 123.707 342.952 126.288L331.864 128.224C331.747 125.995 331.483 124 331.072 122.24C330.72 120.48 330.045 119.101 329.048 118.104C328.109 117.107 326.701 116.608 324.824 116.608C322.888 116.608 321.392 117.253 320.336 118.544C319.339 119.776 318.84 121.331 318.84 123.208C318.84 125.613 319.339 127.608 320.336 129.192C321.333 130.717 322.771 132.301 324.648 133.944L333.536 141.776C336.469 144.24 338.963 147.144 341.016 150.488C343.128 153.773 344.184 157.763 344.184 162.456C344.184 165.859 343.421 168.88 341.896 171.52C340.429 174.16 338.347 176.243 335.648 177.768C333.008 179.235 329.899 179.968 326.32 179.968ZM351.852 179V107.72H381.772V116.872H364.876V137.376H378.164V146.44H364.876V170.024H381.948V179H351.852ZM385.885 179L400.141 107.72H414.045L428.301 179H416.245L413.429 162.544H401.021L398.117 179H385.885ZM402.341 154.272H412.021L407.181 124.352L402.341 154.272ZM439.246 179V117.312H427.894V107.72H463.446V117.312H452.27V179H439.246ZM477.059 179V117.312H465.707V107.72H501.259V117.312H490.083V179H477.059ZM507.743 179V107.72H520.767V170.024H538.015V179H507.743ZM544.782 179V107.72H574.702V116.872H557.806V137.376H571.094V146.44H557.806V170.024H574.878V179H544.782Z" fill="#F2F7F7"/>
<path d="M120.828 2L92.9394 169.999H131.985L141.219 121.712L120.828 2Z" fill="#A6D569"/>
<path d="M89.8418 170H62L85.5467 41.2344L96.6877 121.713L89.8418 170Z" fill="#A6D569"/>
<path d="M182 169.999H135.125L158.563 60.3467L182 169.999Z" fill="#A6D569"/>
</svg>
