<svg viewBox="0 0 1280 613" fill="none" xmlns="http://www.w3.org/2000/svg">
<!-- <svg width="1280" height="613" viewBox="0 0 1280 613" fill="none" xmlns="http://www.w3.org/2000/svg"> -->
<g>
<path d="M965.05 272.236L953.503 283.783L965.05 295.33L976.597 283.783L965.05 272.236ZM965.05 413.439H963.05V415.439H965.05V413.439ZM1192.46 413.439H1194.46V411.439H1192.46V413.439ZM1192.46 559H1190.46V561H1192.46V559ZM1295 559V561H1297V559H1295ZM1295 350.223H1297V348.223H1295V350.223ZM1173 350.223H1171V352.223H1173V350.223ZM855.557 308.335H839.227V324.665H855.557V308.335ZM689.197 474.695L687.783 473.28L686.454 474.609L687.698 476.018L689.197 474.695ZM720 509.589H722V508.833L721.499 508.266L720 509.589ZM720 603V605H722V603H720ZM580 603H578V605H580V603ZM580 456.598H582V454.598H580V456.598ZM502.768 456.598V454.598H501.827L501.227 455.324L502.768 456.598ZM433.09 540.903V542.903H434.032L434.632 542.177L433.09 540.903ZM-16 540.903H-18V542.903H-16V540.903ZM-16 474.695V472.695H-18V474.695H-16ZM396.435 474.695L384.888 463.148L373.341 474.695L384.888 486.242L396.435 474.695ZM1173 5.45299L1161.45 17L1173 28.547L1184.55 17L1173 5.45299ZM963.05 283.783V413.439H967.05V283.783H963.05ZM965.05 415.439H1192.46V411.439H965.05V415.439ZM1190.46 413.439V559H1194.46V413.439H1190.46ZM1192.46 561H1295V557H1192.46V561ZM1297 559V350.223H1293V559H1297ZM1295 348.223H1173V352.223H1295V348.223ZM845.978 315.086L687.783 473.28L690.611 476.109L848.806 317.914L845.978 315.086ZM687.698 476.018L718.501 510.913L721.499 508.266L690.697 473.371L687.698 476.018ZM718 509.589V603H722V509.589H718ZM720 601H580V605H720V601ZM582 603V456.598H578V603H582ZM580 454.598H502.768V458.598H580V454.598ZM501.227 455.324L431.549 539.629L434.632 542.177L504.31 457.872L501.227 455.324ZM433.09 538.903H-16V542.903H433.09V538.903ZM-14 540.903V474.695H-18V540.903H-14ZM-16 476.695H384.888V472.695H-16V476.695ZM1171 17V350.223H1175V17H1171Z" fill="#F8F8F8" fill-opacity="0.4" style="mix-blend-mode:overlay"/>
</g>
</svg>
