<svg width="383" height="383" viewBox="0 0 383 383" fill="none" xmlns="http://www.w3.org/2000/svg">
<rect width="383" height="383" fill="#F2F7F7"/>
<path d="M103.868 287.773H114.335V276.679H110.148C108.055 276.679 106.24 276.051 104.705 274.795C103.31 273.678 102.124 272.143 101.147 270.189C100.309 268.236 99.6813 265.933 99.2627 263.281C98.844 260.63 98.6347 257.908 98.6347 255.117V225.811C98.6347 220.089 98.0067 215.204 96.7507 211.157C95.4947 206.971 94.0293 203.552 92.3547 200.9C90.68 198.109 89.0053 196.016 87.3307 194.62C85.7956 193.224 84.6791 192.317 83.9813 191.899V191.48C84.6791 191.061 85.7956 190.154 87.3307 188.759C89.0053 187.363 90.68 185.34 92.3547 182.688C94.0293 179.897 95.4947 176.478 96.7507 172.431C98.0067 168.244 98.6347 163.29 98.6347 157.568V128.052C98.6347 125.261 98.844 122.609 99.2627 120.097C99.6813 117.446 100.309 115.143 101.147 113.189C102.124 111.096 103.31 109.491 104.705 108.375C106.24 107.119 108.055 106.491 110.148 106.491H114.335V95.396H103.868C98.0067 95.396 93.4711 97.7685 90.2613 102.513C87.0516 107.258 85.4467 113.608 85.4467 121.563V152.753C85.4467 156.94 85.2373 161.057 84.8187 165.104C84.4 169.151 83.6324 172.78 82.516 175.989C81.3996 179.06 79.8644 181.572 77.9107 183.525C75.9569 185.34 73.4449 186.247 70.3747 186.247V197.341C73.4449 197.341 75.9569 198.318 77.9107 200.272C79.8644 202.086 81.3996 204.598 82.516 207.808C83.6324 210.878 84.4 214.437 84.8187 218.484C85.2373 222.531 85.4467 226.648 85.4467 230.835V261.607C85.4467 269.561 87.0516 275.911 90.2613 280.656C93.4711 285.401 98.0067 287.773 103.868 287.773ZM279.425 95.396H268.958V106.491H273.145C275.238 106.491 276.983 107.119 278.378 108.375C279.913 109.491 281.1 111.096 281.937 113.189C282.914 115.143 283.612 117.446 284.03 120.097C284.449 122.609 284.658 125.261 284.658 128.052V157.568C284.658 163.29 285.286 168.244 286.542 172.431C287.798 176.478 289.264 179.897 290.938 182.688C292.613 185.34 294.218 187.363 295.753 188.759C297.428 190.154 298.614 191.061 299.312 191.48V191.899C298.614 192.317 297.428 193.224 295.753 194.62C294.218 196.016 292.613 198.109 290.938 200.9C289.264 203.552 287.798 206.971 286.542 211.157C285.286 215.204 284.658 220.089 284.658 225.811V255.117C284.658 257.908 284.449 260.63 284.03 263.281C283.612 265.933 282.914 268.236 281.937 270.189C281.1 272.143 279.913 273.678 278.378 274.795C276.983 276.051 275.238 276.679 273.145 276.679H268.958V287.773H279.425C285.286 287.773 289.822 285.401 293.032 280.656C296.241 275.911 297.846 269.561 297.846 261.607V230.625C297.846 226.439 298.056 222.322 298.474 218.275C298.893 214.228 299.661 210.669 300.777 207.599C301.893 204.389 303.429 201.877 305.382 200.063C307.336 198.109 309.848 197.132 312.918 197.132V186.037C309.848 186.037 307.336 185.13 305.382 183.316C303.429 181.362 301.893 178.85 300.777 175.78C299.661 172.57 298.893 168.942 298.474 164.895C298.056 160.848 297.846 156.731 297.846 152.544V121.563C297.846 113.608 296.241 107.258 293.032 102.513C289.822 97.7685 285.286 95.396 279.425 95.396Z" fill="#00211F"/>
<path d="M190.828 97L162.939 264.999H201.985L211.219 216.712L190.828 97Z" fill="#005045"/>
<path d="M159.842 265H132L155.547 136.234L166.688 216.713L159.842 265Z" fill="#005045"/>
<path d="M252 264.999H205.125L228.563 155.347L252 264.999Z" fill="#005045"/>
</svg>
