<svg width="196" height="196" viewBox="0 0 196 196" fill="none" xmlns="http://www.w3.org/2000/svg">
<rect width="196" height="196" fill="#EAF1F1"/>
<path d="M97.8767 113.85C86.2858 113.85 76.9023 110.224 69.726 102.973C62.5498 95.7209 58.9617 86.3494 58.9617 74.858C58.9617 63.3666 62.5378 54.0174 69.69 46.8105C76.8423 39.6035 86.2138 36 97.8046 36C109.395 36 118.832 39.595 126.114 46.785C133.397 53.9749 137.038 63.3703 137.038 74.9712C137.038 86.3871 133.409 95.7209 126.151 102.973C118.892 110.224 109.468 113.85 97.8767 113.85ZM20.4893 196V169.795C20.4893 163.159 22.2113 157.38 25.6554 152.457C29.0995 147.534 33.5632 143.793 39.0465 141.233C49.3059 136.405 59.2423 132.86 68.8559 130.597C78.4696 128.334 88.1082 127.202 97.7717 127.202C107.725 127.202 117.436 128.409 126.906 130.823C136.377 133.237 146.241 136.707 156.501 141.233C162.175 143.595 166.762 147.26 170.261 152.23C173.761 157.199 175.51 163.034 175.51 169.736V196H20.4893Z" fill="#D5DDDE"/>
</svg>
