<svg width="24" height="25" viewBox="0 0 24 25" fill="none" xmlns="http://www.w3.org/2000/svg">
<g clip-path="url(#clip0_1903_2865)">
<path d="M17.4486 8.05719C17.4486 8.0573 17.4486 8.05743 17.4488 8.05743H21.6206C21.6229 8.05743 21.6249 8.05557 21.6249 8.05328C21.6249 7.98936 21.624 7.92564 21.6223 7.86212C21.5976 6.9428 20.7651 6.31382 19.8454 6.31384L12.9179 6.31399L12.9178 6.3139L12.9177 6.31381H12.9177L12.9175 6.31366L12.9177 4.96494C12.9178 4.41889 12.5371 3.96309 12.1759 3.53056C12.1107 3.45256 12.0462 3.37532 11.9847 3.29844C11.7912 3.05669 11.6766 2.75748 11.6766 2.43382C11.6766 1.63221 12.3793 0.980033 13.2431 0.980033C14.1071 0.980033 14.8098 1.6323 14.8098 2.43382C14.8098 2.78998 14.6707 3.11605 14.4405 3.36866C14.1761 3.65876 13.9203 3.99538 13.9203 4.38788C13.9203 4.93761 14.3659 5.38326 14.9156 5.38326H18.175C19.5865 5.38326 20.5083 3.94689 19.5355 2.92425C18.0047 1.315 15.7652 0.300049 13.2703 0.300049C8.65624 0.300049 4.91588 3.77114 4.91588 8.05302L4.91738 8.10926L4.91588 8.13282V8.97061C4.91588 9.34378 4.8097 9.70849 4.62403 10.0322C4.5824 10.1048 4.53914 10.1811 4.49418 10.2615L3.08097 12.409C2.99507 12.5394 2.97646 12.6986 3.03021 12.8432L3.07489 12.9631C3.15163 13.1698 3.36123 13.3085 3.59681 13.3085C4.32531 13.3085 4.91588 13.899 4.91588 14.6275V18.8135C4.91588 19.1462 5.20629 19.4156 5.56481 19.4156H9.0249C9.1034 19.4156 9.17678 19.4731 9.17678 19.5516V21.5053C9.17678 22.7741 10.5262 23.5875 11.6481 22.9951L18.4703 19.3927C19.1261 19.0464 19.5364 18.3657 19.5364 17.6241V13.5312C19.5364 13.3047 19.6261 13.0872 19.7746 12.9162C20.2193 12.4039 19.8096 11.6778 19.1312 11.6778L14.9159 11.6779C14.3661 11.6779 13.9205 12.1236 13.9205 12.6733C13.9205 13.0658 14.1763 13.4024 14.4407 13.6925C14.6709 13.9451 14.81 14.2712 14.81 14.6274C14.81 15.429 14.1073 16.0812 13.2433 16.0812C12.3795 16.0812 11.6768 15.4289 11.6768 14.6274C11.6768 14.3037 11.7914 14.0045 11.9849 13.7628C12.0464 13.6859 12.1109 13.6087 12.1761 13.5307C12.5373 13.0982 12.918 12.6423 12.9179 12.0963L12.9178 10.7475L12.9179 10.7474H12.918L12.9181 10.7473L12.9181 10.7472L20.4239 10.7474C20.8347 10.7474 21.209 10.5035 21.3255 10.1096C21.4976 9.52836 21.0255 8.98748 20.4194 8.98748H19.1649C18.6101 8.98748 18.0914 9.27944 17.5737 9.57086C17.2209 9.76946 16.8685 9.96781 16.5054 10.0733C16.3578 10.1162 16.2009 10.1393 16.0383 10.1393C15.1745 10.1393 14.4717 9.48726 14.4717 8.68565C14.4717 7.88385 15.1746 7.23177 16.0383 7.23177C16.6592 7.23167 17.1954 7.56969 17.4486 8.05704L17.4486 8.05719Z" fill="#005045"/>
<path d="M17.4486 8.05719C17.4486 8.0573 17.4486 8.05743 17.4488 8.05743H21.6206C21.6229 8.05743 21.6249 8.05557 21.6249 8.05328C21.6249 7.98936 21.624 7.92564 21.6223 7.86212C21.5976 6.9428 20.7651 6.31382 19.8454 6.31384L12.9179 6.31399L12.9178 6.3139L12.9177 6.31381H12.9177L12.9175 6.31366L12.9177 4.96494C12.9178 4.41889 12.5371 3.96309 12.1759 3.53056C12.1107 3.45256 12.0462 3.37532 11.9847 3.29844C11.7912 3.05669 11.6766 2.75748 11.6766 2.43382C11.6766 1.63221 12.3793 0.980033 13.2431 0.980033C14.1071 0.980033 14.8098 1.6323 14.8098 2.43382C14.8098 2.78998 14.6707 3.11605 14.4405 3.36866C14.1761 3.65876 13.9203 3.99538 13.9203 4.38788C13.9203 4.93761 14.3659 5.38326 14.9156 5.38326H18.175C19.5865 5.38326 20.5083 3.94689 19.5355 2.92425C18.0047 1.315 15.7652 0.300049 13.2703 0.300049C8.65624 0.300049 4.91588 3.77114 4.91588 8.05302L4.91738 8.10926L4.91588 8.13282V8.97061C4.91588 9.34378 4.8097 9.70849 4.62403 10.0322C4.5824 10.1048 4.53914 10.1811 4.49418 10.2615L3.08097 12.409C2.99507 12.5394 2.97646 12.6986 3.03021 12.8432L3.07489 12.9631C3.15163 13.1698 3.36123 13.3085 3.59681 13.3085C4.32531 13.3085 4.91588 13.899 4.91588 14.6275V18.8135C4.91588 19.1462 5.20629 19.4156 5.56481 19.4156H9.0249C9.1034 19.4156 9.17678 19.4731 9.17678 19.5516V21.5053C9.17678 22.7741 10.5262 23.5875 11.6481 22.9951L18.4703 19.3927C19.1261 19.0464 19.5364 18.3657 19.5364 17.6241V13.5312C19.5364 13.3047 19.6261 13.0872 19.7746 12.9162C20.2193 12.4039 19.8096 11.6778 19.1312 11.6778L14.9159 11.6779C14.3661 11.6779 13.9205 12.1236 13.9205 12.6733C13.9205 13.0658 14.1763 13.4024 14.4407 13.6925C14.6709 13.9451 14.81 14.2712 14.81 14.6274C14.81 15.429 14.1073 16.0812 13.2433 16.0812C12.3795 16.0812 11.6768 15.4289 11.6768 14.6274C11.6768 14.3037 11.7914 14.0045 11.9849 13.7628C12.0464 13.6859 12.1109 13.6087 12.1761 13.5307C12.5373 13.0982 12.918 12.6423 12.9179 12.0963L12.9178 10.7475L12.9179 10.7474H12.918L12.9181 10.7473L12.9181 10.7472L20.4239 10.7474C20.8347 10.7474 21.209 10.5035 21.3255 10.1096C21.4976 9.52836 21.0255 8.98748 20.4194 8.98748H19.1649C18.6101 8.98748 18.0914 9.27944 17.5737 9.57086C17.2209 9.76946 16.8685 9.96781 16.5054 10.0733C16.3578 10.1162 16.2009 10.1393 16.0383 10.1393C15.1745 10.1393 14.4717 9.48726 14.4717 8.68565C14.4717 7.88385 15.1746 7.23177 16.0383 7.23177C16.6592 7.23167 17.1954 7.56969 17.4486 8.05704L17.4486 8.05719Z" stroke="#005045"/>
<path d="M16.6028 8.68603C16.6028 8.97514 16.3502 9.20946 16.0386 9.20946C15.7271 9.20946 15.4746 8.97513 15.4746 8.68603C15.4746 8.39692 15.7271 8.1626 16.0386 8.1626C16.3502 8.1626 16.6028 8.39692 16.6028 8.68603Z" fill="#005045"/>
<path d="M16.6028 8.68603C16.6028 8.97514 16.3502 9.20946 16.0386 9.20946C15.7271 9.20946 15.4746 8.97513 15.4746 8.68603C15.4746 8.39692 15.7271 8.1626 16.0386 8.1626C16.3502 8.1626 16.6028 8.39692 16.6028 8.68603Z" stroke="#005045"/>
<path d="M13.8078 2.43407C13.8078 2.72318 13.5553 2.9575 13.2437 2.9575C12.9322 2.9575 12.6797 2.72318 12.6797 2.43407C12.6797 2.14497 12.9322 1.91064 13.2437 1.91064C13.5553 1.91064 13.8078 2.14497 13.8078 2.43407Z" fill="#005045"/>
<path d="M13.8078 2.43407C13.8078 2.72318 13.5553 2.9575 13.2437 2.9575C12.9322 2.9575 12.6797 2.72318 12.6797 2.43407C12.6797 2.14497 12.9322 1.91064 13.2437 1.91064C13.5553 1.91064 13.8078 2.14497 13.8078 2.43407Z" stroke="#005045"/>
<path d="M13.8078 14.6277C13.8078 14.9168 13.5553 15.1511 13.2437 15.1511C12.9322 15.1511 12.6797 14.9168 12.6797 14.6277C12.6797 14.3386 12.9322 14.1042 13.2437 14.1042C13.5553 14.1042 13.8078 14.3386 13.8078 14.6277Z" fill="#005045"/>
<path d="M13.8078 14.6277C13.8078 14.9168 13.5553 15.1511 13.2437 15.1511C12.9322 15.1511 12.6797 14.9168 12.6797 14.6277C12.6797 14.3386 12.9322 14.1042 13.2437 14.1042C13.5553 14.1042 13.8078 14.3386 13.8078 14.6277Z" stroke="#005045"/>
</g>
<defs>
<clipPath id="clip0_1903_2865">
<rect width="24" height="24" fill="white" transform="translate(0 0.300049)"/>
</clipPath>
</defs>
</svg>
