<svg width="25" height="25" viewBox="0 0 25 25" fill="none" xmlns="http://www.w3.org/2000/svg">
<path d="M11.8122 9.77565L11.8123 9.77563V10.1842C11.6078 10.2345 11.4146 10.3137 11.2373 10.4172L10.8001 9.97997C10.59 9.76983 10.2485 9.76982 10.0383 9.97997C9.82821 10.1901 9.82819 10.5316 10.0383 10.7417C10.0383 10.7417 10.0383 10.7417 10.0383 10.7417L10.4687 11.1722C10.3619 11.348 10.2791 11.5402 10.2252 11.744H9.60842C9.31068 11.744 9.06982 11.985 9.06982 12.2827C9.06982 12.5804 9.31071 12.8213 9.60842 12.8213H10.216C10.2663 13.0258 10.3456 13.2192 10.4491 13.3965L10.0129 13.8328C9.80279 14.0429 9.80279 14.3844 10.0129 14.5946C10.1183 14.6999 10.2563 14.7523 10.3938 14.7523C10.531 14.7523 10.6698 14.7001 10.7749 14.5944C10.7749 14.5944 10.775 14.5943 10.775 14.5943L11.2044 14.1649C11.3803 14.2717 11.5724 14.3545 11.7762 14.4084V15.0245C11.7762 15.3222 12.0172 15.5631 12.3149 15.5631C12.6126 15.5631 12.8536 15.3222 12.8536 15.0245V14.4178C13.0586 14.3674 13.2522 14.2879 13.4299 14.1841L13.8658 14.62C13.9711 14.7253 14.1091 14.7778 14.2466 14.7778C14.3842 14.7778 14.5222 14.7253 14.6275 14.62L14.5391 14.5316L14.6275 14.62C14.8377 14.4098 14.8377 14.0683 14.6275 13.8582C14.6275 13.8582 14.6275 13.8582 14.6275 13.8582L14.198 13.4286C14.3046 13.2528 14.3871 13.0609 14.4409 12.8573H15.0574C15.3544 12.8573 15.5961 12.6165 15.5961 12.3187C15.5961 12.021 15.3551 11.78 15.0574 11.78H14.45C14.3996 11.5752 14.3202 11.3818 14.2165 11.2043L14.6529 10.7678C14.8631 10.5577 14.8631 10.2162 14.6529 10.0061C14.4428 9.79593 14.1013 9.79592 13.8911 10.0061L13.461 10.4362C13.2853 10.3295 13.0933 10.247 12.8895 10.1932V9.5762C12.8895 9.27848 12.6486 9.0376 12.3509 9.0376C12.0532 9.0376 11.8122 9.27845 11.8122 9.5762V9.77565ZM11.2304 12.3003C11.2304 11.6928 11.7251 11.198 12.3333 11.198C12.9409 11.198 13.4356 11.6928 13.4356 12.3003C13.4356 12.9079 12.9415 13.4027 12.3333 13.4027C11.7251 13.4027 11.2304 12.9078 11.2304 12.3003Z" fill="#005045" stroke="#005045" stroke-width="0.25"/>
<path d="M12.333 18.4726H12.4494L12.4495 18.4713C15.7994 18.409 18.5055 15.6647 18.5061 12.3006V12.3006C18.5061 10.4273 17.682 8.69733 16.2371 7.51894C16.2586 7.41344 16.2699 7.30429 16.2699 7.19272C16.2699 6.29581 15.5403 5.56616 14.6434 5.56616C14.1149 5.56616 13.6447 5.81958 13.3476 6.2106C13.014 6.15536 12.6738 6.12757 12.333 6.12757C8.92941 6.12757 6.16064 8.89633 6.16064 12.3C6.16064 15.7038 8.92941 18.4726 12.333 18.4726ZM15.6722 8.45175C16.7928 9.421 17.4282 10.8051 17.4282 12.3008C17.4282 15.1101 15.1423 17.396 12.333 17.396C9.52362 17.396 7.23778 15.1101 7.23778 12.3008C7.23778 9.4914 9.52362 7.20557 12.333 7.20557C12.5627 7.20557 12.7918 7.22092 13.0178 7.25117C13.0487 8.1212 13.766 8.81931 14.6434 8.81931C15.0334 8.81931 15.3918 8.68125 15.6722 8.45175ZM14.0942 7.19279C14.0942 6.8901 14.3407 6.64357 14.6434 6.64357C14.946 6.64357 15.1926 6.89011 15.1926 7.19279C15.1926 7.49539 14.946 7.74201 14.6434 7.74201C14.3407 7.74201 14.0942 7.4954 14.0942 7.19279Z" fill="#005045" stroke="#005045" stroke-width="0.25"/>
<path d="M7.57716 16.8884V16.7954L7.57455 16.7946C7.52562 15.866 6.75445 15.1253 5.81397 15.1253C5.75968 15.1253 5.70592 15.1278 5.65281 15.1326C5.27207 14.2379 5.07929 13.2868 5.07929 12.2999C5.07929 8.30049 8.33373 5.04605 12.3331 5.04605C16.3325 5.04605 19.5869 8.30049 19.5869 12.2999C19.5869 16.2992 16.3327 19.5537 12.3331 19.5537C10.4936 19.5537 8.75696 18.8727 7.41333 17.6303C7.51843 17.4045 7.57716 17.1531 7.57716 16.8884ZM6.68291 18.4223C8.22578 19.8489 10.221 20.631 12.3332 20.631H12.3332C16.9268 20.631 20.6642 16.8936 20.6642 12.3C20.6642 7.70636 16.9268 3.96899 12.3332 3.96899C7.73956 3.96899 4.0022 7.70636 4.0022 12.3C4.0022 13.4326 4.22364 14.526 4.66199 15.5553C4.28839 15.8786 4.05112 16.3564 4.05112 16.8886C4.05112 17.8605 4.84158 18.6516 5.81416 18.6516C6.12969 18.6516 6.42631 18.5682 6.68291 18.4223ZM5.12834 16.8878C5.12834 16.51 5.43586 16.2021 5.81412 16.2021C6.19229 16.2021 6.49982 16.51 6.49982 16.8878C6.49982 17.2655 6.19179 17.5736 5.81412 17.5736C5.43643 17.5736 5.12834 17.2655 5.12834 16.8878Z" fill="#005045" stroke="#005045" stroke-width="0.25"/>
<path d="M12.3331 23.0913V23.0912C14.7895 23.0912 17.1688 22.2536 19.078 20.7232C19.3805 20.9175 19.7403 21.0303 20.1256 21.0303C21.1974 21.0303 22.0695 20.1583 22.0695 19.0864C22.0695 18.6058 21.894 18.1652 21.604 17.8257C22.6002 16.1587 23.1247 14.2551 23.1247 12.2997C23.1247 6.34922 18.2835 1.50806 12.3331 1.50806C6.38267 1.50806 1.5415 6.34922 1.5415 12.2997C1.5415 18.2501 6.38267 23.0913 12.3331 23.0913ZM18.3665 19.9131C16.6548 21.2703 14.5281 22.0135 12.3331 22.0135C6.97694 22.0135 2.6187 17.6552 2.6187 12.2991C2.6187 6.94289 6.97694 2.58466 12.3331 2.58466C17.6893 2.58466 22.0475 6.94289 22.0475 12.2991C22.0475 14.043 21.5838 15.7406 20.7042 17.2306C20.5213 17.1735 20.3269 17.1427 20.1256 17.1427C19.0538 17.1427 18.1818 18.0147 18.1818 19.0865C18.1818 19.3817 18.248 19.662 18.3665 19.9131ZM19.259 19.0864C19.259 18.6089 19.6481 18.2198 20.1256 18.2198C20.6032 18.2198 20.9922 18.6089 20.9922 19.0864C20.9922 19.564 20.6032 19.953 20.1256 19.953C19.6481 19.953 19.259 19.564 19.259 19.0864Z" fill="#005045" stroke="#005045" stroke-width="0.25"/>
</svg>
